<svg width="32" height="32" viewBox="0 0 32 32" fill="none" xmlns="http://www.w3.org/2000/svg">
<rect width="31.3632" height="31.3632" fill="white"/>
<path d="M6.83733 17.3977C6.58407 17.3977 6.34597 17.3477 6.12303 17.2479C5.90009 17.1462 5.70391 17.0062 5.53447 16.8278C5.36682 16.6495 5.23484 16.4435 5.13853 16.2099C5.044 15.9744 4.99674 15.723 4.99674 15.4554C4.99674 15.1861 5.044 14.9346 5.13853 14.701C5.23484 14.4656 5.36682 14.2596 5.53447 14.083C5.70391 13.9047 5.90009 13.7655 6.12303 13.6657C6.34597 13.564 6.58407 13.5132 6.83733 13.5132C7.14053 13.5132 7.41966 13.5836 7.6747 13.7245C7.92974 13.8636 8.14109 14.05 8.30874 14.2836L7.72553 14.5967C7.6203 14.4665 7.48921 14.3621 7.33226 14.2836C7.1771 14.2052 7.01212 14.1659 6.83733 14.1659C6.67325 14.1659 6.51898 14.1998 6.37451 14.2676C6.23004 14.3336 6.10341 14.4263 5.99462 14.5458C5.88582 14.6635 5.80111 14.8009 5.74047 14.9578C5.67983 15.113 5.64951 15.2789 5.64951 15.4554C5.64951 15.6338 5.67983 15.8005 5.74047 15.9557C5.80289 16.1109 5.8885 16.2482 5.99729 16.3677C6.10609 16.4854 6.23183 16.5782 6.37451 16.6459C6.51898 16.7119 6.67325 16.7449 6.83733 16.7449C7.01569 16.7449 7.18155 16.7057 7.33494 16.6272C7.4901 16.5469 7.6203 16.4417 7.72553 16.3115L8.30874 16.6272C8.14109 16.8591 7.92974 17.0454 7.6747 17.1863C7.41966 17.3272 7.14053 17.3977 6.83733 17.3977ZM11.2642 15.6373V17.3281H10.6114V15.8086C10.6114 15.7033 10.5856 15.6079 10.5338 15.5223C10.4821 15.4349 10.4125 15.3662 10.3252 15.3163C10.2395 15.2646 10.1441 15.2387 10.0389 15.2387C9.93367 15.2387 9.83736 15.2646 9.74997 15.3163C9.66436 15.3662 9.59569 15.4349 9.54397 15.5223C9.49403 15.6079 9.46906 15.7033 9.46906 15.8086V17.3281H8.81629L8.81362 13.3152H9.46639L9.46906 14.8909C9.56002 14.7946 9.66882 14.7188 9.79545 14.6635C9.92208 14.6065 10.0585 14.5779 10.2048 14.5779C10.3992 14.5779 10.5766 14.6261 10.7371 14.7224C10.8977 14.8169 11.0252 14.9444 11.1197 15.105C11.216 15.2637 11.2642 15.4412 11.2642 15.6373ZM11.7972 14.6528H12.45V17.3281H11.7972V14.6528ZM12.1289 14.3077C12.0326 14.3077 11.9515 14.2765 11.8855 14.2141C11.8195 14.1499 11.7865 14.0696 11.7865 13.9733C11.7865 13.8788 11.8195 13.7994 11.8855 13.7352C11.9515 13.671 12.0317 13.6389 12.1263 13.6389C12.2208 13.6389 12.3001 13.671 12.3644 13.7352C12.4303 13.7994 12.4633 13.8788 12.4633 13.9733C12.4633 14.0696 12.4312 14.1499 12.367 14.2141C12.3028 14.2765 12.2235 14.3077 12.1289 14.3077ZM13.1035 17.3281V13.3152H13.7563V17.3281H13.1035ZM14.2923 16.3383V14.6528H14.9451V16.1671C14.9451 16.2723 14.9709 16.3686 15.0227 16.456C15.0744 16.5416 15.1431 16.6103 15.2287 16.662C15.3161 16.7119 15.4115 16.7369 15.5149 16.7369C15.6219 16.7369 15.7182 16.7119 15.8038 16.662C15.8895 16.6103 15.9581 16.5416 16.0098 16.456C16.0616 16.3686 16.0874 16.2723 16.0874 16.1671V14.6528H16.7402L16.7429 17.3281H16.0901L16.0874 17.0847C15.9947 17.181 15.885 17.2577 15.7584 17.3147C15.6317 17.37 15.4962 17.3977 15.3517 17.3977C15.1573 17.3977 14.9799 17.3504 14.8193 17.2559C14.6588 17.1596 14.5304 17.0321 14.4341 16.8733C14.3396 16.7128 14.2923 16.5345 14.2923 16.3383ZM17.2784 17.3281V14.6528H17.9312V14.8909C18.0221 14.7946 18.1309 14.7188 18.2575 14.6635C18.3842 14.6065 18.5206 14.5779 18.6669 14.5779C18.8524 14.5779 19.0227 14.6216 19.1778 14.709C19.3348 14.7964 19.4596 14.9132 19.5524 15.0595C19.6469 14.9132 19.7718 14.7964 19.9269 14.709C20.0821 14.6216 20.2524 14.5779 20.4379 14.5779C20.6341 14.5779 20.8116 14.6261 20.9703 14.7224C21.1308 14.8169 21.2583 14.9444 21.3529 15.105C21.4492 15.2637 21.4973 15.4412 21.4973 15.6373V17.3281H20.8445V15.8112C20.8445 15.7078 20.8187 15.6133 20.767 15.5277C20.717 15.4403 20.6493 15.3707 20.5636 15.319C20.4798 15.2655 20.3853 15.2387 20.2801 15.2387C20.1748 15.2387 20.0794 15.2646 19.9938 15.3163C19.91 15.3662 19.8422 15.434 19.7905 15.5196C19.7388 15.6052 19.7129 15.7024 19.7129 15.8112V17.3281H19.0601V15.8112C19.0601 15.7024 19.0352 15.6052 18.9852 15.5196C18.9353 15.434 18.8675 15.3662 18.7819 15.3163C18.6963 15.2646 18.6009 15.2387 18.4956 15.2387C18.3922 15.2387 18.2977 15.2655 18.2121 15.319C18.1265 15.3707 18.0578 15.4403 18.0061 15.5277C17.9561 15.6133 17.9312 15.7078 17.9312 15.8112V17.3281H17.2784ZM22.0333 17.3281V14.6528H22.6861V14.8909C22.777 14.7946 22.8858 14.7188 23.0125 14.6635C23.1391 14.6065 23.2755 14.5779 23.4218 14.5779C23.6073 14.5779 23.7776 14.6216 23.9327 14.709C24.0897 14.7964 24.2145 14.9132 24.3073 15.0595C24.4018 14.9132 24.5267 14.7964 24.6818 14.709C24.837 14.6216 25.0073 14.5779 25.1928 14.5779C25.389 14.5779 25.5665 14.6261 25.7252 14.7224C25.8857 14.8169 26.0132 14.9444 26.1078 15.105C26.2041 15.2637 26.2522 15.4412 26.2522 15.6373V17.3281H25.5995V15.8112C25.5995 15.7078 25.5736 15.6133 25.5219 15.5277C25.4719 15.4403 25.4042 15.3707 25.3185 15.319C25.2347 15.2655 25.1402 15.2387 25.035 15.2387C24.9297 15.2387 24.8343 15.2646 24.7487 15.3163C24.6649 15.3662 24.5971 15.434 24.5454 15.5196C24.4937 15.6052 24.4678 15.7024 24.4678 15.8112V17.3281H23.815V15.8112C23.815 15.7024 23.7901 15.6052 23.7401 15.5196C23.6902 15.434 23.6224 15.3662 23.5368 15.3163C23.4512 15.2646 23.3558 15.2387 23.2506 15.2387C23.1471 15.2387 23.0526 15.2655 22.967 15.319C22.8814 15.3707 22.8127 15.4403 22.761 15.5277C22.711 15.6133 22.6861 15.7078 22.6861 15.8112V17.3281H22.0333ZM27.0156 17.3977C26.9229 17.3977 26.8435 17.3656 26.7775 17.3014C26.7133 17.2354 26.6812 17.1551 26.6812 17.0606C26.6812 16.9696 26.7133 16.8912 26.7775 16.8252C26.8435 16.7592 26.9229 16.7262 27.0156 16.7262C27.1083 16.7262 27.1877 16.7592 27.2537 16.8252C27.3197 16.8912 27.3527 16.9696 27.3527 17.0606C27.3527 17.1551 27.3197 17.2354 27.2537 17.3014C27.1877 17.3656 27.1083 17.3977 27.0156 17.3977Z" fill="#020617"/>
</svg>
