<svg width="32" height="32" viewBox="0 0 32 32" fill="none" xmlns="http://www.w3.org/2000/svg">
<g clip-path="url(#clip0_931_64)">
<rect width="32" height="32" rx="8" fill="white"/>
<path d="M26.6567 19.751V15.251H27.7547V15.6515C27.9077 15.4895 28.0907 15.362 28.3037 15.269C28.5167 15.173 28.7462 15.125 28.9922 15.125C29.3042 15.125 29.5907 15.1985 29.8517 15.3455C30.1157 15.4925 30.3257 15.689 30.4817 15.935C30.6407 15.689 30.8507 15.4925 31.1117 15.3455C31.3727 15.1985 31.6592 15.125 31.9712 15.125C32.3012 15.125 32.5997 15.206 32.8667 15.368C33.1367 15.527 33.3512 15.7415 33.5102 16.0115C33.6722 16.2785 33.7532 16.577 33.7532 16.907V19.751H32.6552V17.1995C32.6552 17.0255 32.6117 16.8665 32.5247 16.7225C32.4407 16.5755 32.3267 16.4585 32.1827 16.3715C32.0417 16.2815 31.8827 16.2365 31.7057 16.2365C31.5287 16.2365 31.3682 16.28 31.2242 16.367C31.0832 16.451 30.9692 16.565 30.8822 16.709C30.7952 16.853 30.7517 17.0165 30.7517 17.1995V19.751H29.6537V17.1995C29.6537 17.0165 29.6117 16.853 29.5277 16.709C29.4437 16.565 29.3297 16.451 29.1857 16.367C29.0417 16.28 28.8812 16.2365 28.7042 16.2365C28.5302 16.2365 28.3712 16.2815 28.2272 16.3715C28.0832 16.4585 27.9677 16.5755 27.8807 16.7225C27.7967 16.8665 27.7547 17.0255 27.7547 17.1995V19.751H26.6567Z" fill="#020617"/>
<path d="M18.6587 19.751V15.251H19.7567V15.6515C19.9097 15.4895 20.0927 15.362 20.3057 15.269C20.5187 15.173 20.7482 15.125 20.9942 15.125C21.3062 15.125 21.5927 15.1985 21.8537 15.3455C22.1177 15.4925 22.3277 15.689 22.4837 15.935C22.6427 15.689 22.8527 15.4925 23.1137 15.3455C23.3747 15.1985 23.6612 15.125 23.9732 15.125C24.3032 15.125 24.6017 15.206 24.8687 15.368C25.1387 15.527 25.3532 15.7415 25.5122 16.0115C25.6742 16.2785 25.7552 16.577 25.7552 16.907V19.751H24.6572V17.1995C24.6572 17.0255 24.6137 16.8665 24.5267 16.7225C24.4427 16.5755 24.3287 16.4585 24.1847 16.3715C24.0437 16.2815 23.8847 16.2365 23.7077 16.2365C23.5307 16.2365 23.3702 16.28 23.2262 16.367C23.0852 16.451 22.9712 16.565 22.8842 16.709C22.7972 16.853 22.7537 17.0165 22.7537 17.1995V19.751H21.6557V17.1995C21.6557 17.0165 21.6137 16.853 21.5297 16.709C21.4457 16.565 21.3317 16.451 21.1877 16.367C21.0437 16.28 20.8832 16.2365 20.7062 16.2365C20.5322 16.2365 20.3732 16.2815 20.2292 16.3715C20.0852 16.4585 19.9697 16.5755 19.8827 16.7225C19.7987 16.8665 19.7567 17.0255 19.7567 17.1995V19.751H18.6587Z" fill="#020617"/>
<path d="M13.6357 18.085V15.25H14.7337V17.797C14.7337 17.974 14.7772 18.136 14.8642 18.283C14.9512 18.427 15.0667 18.5425 15.2107 18.6295C15.3577 18.7135 15.5182 18.7555 15.6922 18.7555C15.8722 18.7555 16.0342 18.7135 16.1782 18.6295C16.3222 18.5425 16.4377 18.427 16.5247 18.283C16.6117 18.136 16.6552 17.974 16.6552 17.797V15.25H17.7532L17.7577 19.75H16.6597L16.6552 19.3405C16.4992 19.5025 16.3147 19.6315 16.1017 19.7275C15.8887 19.8205 15.6607 19.867 15.4177 19.867C15.0907 19.867 14.7922 19.7875 14.5222 19.6285C14.2522 19.4665 14.0362 19.252 13.8742 18.985C13.7152 18.715 13.6357 18.415 13.6357 18.085Z" fill="#020617"/>
<path d="M11.6362 19.75V13H12.7342V19.75H11.6362Z" fill="#020617"/>
<path d="M9.4389 15.2485H10.5369V19.7485H9.4389V15.2485ZM9.9969 14.668C9.8349 14.668 9.6984 14.6155 9.5874 14.5105C9.4764 14.4025 9.4209 14.2675 9.4209 14.1055C9.4209 13.9465 9.4764 13.813 9.5874 13.705C9.6984 13.597 9.8334 13.543 9.9924 13.543C10.1514 13.543 10.2849 13.597 10.3929 13.705C10.5039 13.813 10.5594 13.9465 10.5594 14.1055C10.5594 14.2675 10.5054 14.4025 10.3974 14.5105C10.2894 14.6155 10.1559 14.668 9.9969 14.668Z" fill="#020617"/>
<path d="M8.54241 16.906V19.75H7.44441V17.194C7.44441 17.017 7.40091 16.8565 7.31391 16.7125C7.22691 16.5655 7.10991 16.45 6.96291 16.366C6.81891 16.279 6.65841 16.2355 6.48141 16.2355C6.30441 16.2355 6.14241 16.279 5.99541 16.366C5.85141 16.45 5.73591 16.5655 5.64891 16.7125C5.56491 16.8565 5.52291 17.017 5.52291 17.194V19.75H4.42491L4.42041 13H5.51841L5.52291 15.6505C5.67591 15.4885 5.85891 15.361 6.07191 15.268C6.28491 15.172 6.51441 15.124 6.76041 15.124C7.08741 15.124 7.38591 15.205 7.65591 15.367C7.92591 15.526 8.14041 15.7405 8.29941 16.0105C8.46141 16.2775 8.54241 16.576 8.54241 16.906Z" fill="#020617"/>
<path d="M1.096 19.866C0.67 19.866 0.2695 19.782 -0.1055 19.614C-0.4805 19.443 -0.8105 19.2075 -1.0955 18.9075C-1.3775 18.6075 -1.5995 18.261 -1.7615 17.868C-1.9205 17.472 -2 17.049 -2 16.599C-2 16.146 -1.9205 15.723 -1.7615 15.33C-1.5995 14.934 -1.3775 14.5875 -1.0955 14.2905C-0.8105 13.9905 -0.4805 13.7565 -0.1055 13.5885C0.2695 13.4175 0.67 13.332 1.096 13.332C1.606 13.332 2.0755 13.4505 2.5045 13.6875C2.9335 13.9215 3.289 14.235 3.571 14.628L2.59 15.1545C2.413 14.9355 2.1925 14.76 1.9285 14.628C1.6675 14.496 1.39 14.43 1.096 14.43C0.82 14.43 0.5605 14.487 0.3175 14.601C0.0745 14.712 -0.1385 14.868 -0.3215 15.069C-0.5045 15.267 -0.647 15.498 -0.749 15.762C-0.851 16.023 -0.902 16.302 -0.902 16.599C-0.902 16.899 -0.851 17.1795 -0.749 17.4405C-0.644 17.7015 -0.5 17.9325 -0.317 18.1335C-0.134 18.3315 0.0775002 18.4875 0.3175 18.6015C0.5605 18.7125 0.82 18.768 1.096 18.768C1.396 18.768 1.675 18.702 1.933 18.57C2.194 18.435 2.413 18.258 2.59 18.039L3.571 18.57C3.289 18.96 2.9335 19.2735 2.5045 19.5105C2.0755 19.7475 1.606 19.866 1.096 19.866Z" fill="#020617"/>
</g>
<defs>
<clipPath id="clip0_931_64">
<rect width="32" height="32" rx="8" fill="white"/>
</clipPath>
</defs>
</svg>
